name Run_200 02_newCOP3_v24.mot
datacolumns 19
datarows 48
range 2.65 2.697
DataType=double
version=3
OpenSimVersion=4.3-2021-08-27-4bc7ad9
endheader
time	R_ground_force_vx	R_ground_force_vy	R_ground_force_vz	R_ground_force_px	R_ground_force_py	R_ground_force_pz	L_ground_force_vx	L_ground_force_vy	L_ground_force_vz	L_ground_force_px	L_ground_force_py	L_ground_force_pz	R_ground_torque_x	R_ground_torque_y	R_ground_torque_z	L_ground_torque_x	L_ground_torque_y	L_ground_torque_z
2.65	-3.445945	0.125684	-0.701079	0	0	0	-77.25804100000001	674.644775	82.935875	0.886645	0	-0.597736	0	0	0	-0	2.369935	-0
2.651	-3.144872	0.524339	-0.6061	0	0	0	-76.652328	697.3709720000001	84.082802	0.8841059999999999	0	-0.597506	0	0	0	-0	2.298156	-0
2.652	-2.797126	0.951809	-0.506555	0	0	0	-76.34665699999999	720.3084720000001	85.20410200000001	0.88162	0	-0.597285	0	0	0	-0	2.228279	-0
2.653	-2.409308	1.401684	-0.403611	0	0	0	-76.367699	743.444946	86.308029	0.879204	0	-0.597071	0	0	0	-0	2.160402	-0
2.654	-1.989934	1.866514	-0.298573	0	0	0	-76.73555	766.765564	87.402832	0.876873	0	-0.596861	0	0	0	-0	2.094612	-0
2.655	-1.549256	2.337995	-0.192868	0	0	0	-77.463531	790.253296	88.49659699999999	0.8746390000000001	0	-0.596654	0	0	0	-0	2.030984	-0
2.656	-1.098967	2.807209	-0.088023	0	0	0	-78.55806	813.888489	89.597015	0.872512	0	-0.596448	0	0	0	-0	1.969584	-0
2.657	-0.651836	3.264898	0.014359	0	0	0	-80.018738	837.6494750000001	90.711197	0.870499	0	-0.596242	0	0	0	-0	1.910468	-0
2.658	-0.221255	3.701752	0.112629	0	0	0	-81.83854700000001	861.512756	91.845482	0.868604	0	-0.596032	0	0	0	-0	1.853684	-0
2.659	0.179261	4.108712	0.205125	0	0	0	-84.004166	885.452759	93.005287	0.866829	0	-0.595819	0	0	0	-0	1.799269	-0
2.66	0.536601	4.47726	0.29021	0	0	0	-86.496391	909.4425660000001	94.194962	0.865173	0	-0.5956	0	0	0	-0	1.747255	-0
2.661	0.838594	4.79969	0.366302	0	0	0	-89.29072600000001	933.453918	95.41765599999999	0.863633	0	-0.595374	0	0	0	-0	1.697664	-0
2.662	1.07452	5.069347	0.43192	0.193706	0	0.042414	-92.357956	957.457642	96.67527	0.8622030000000001	0	-0.5951419999999999	-0	0.716064	-0	-0	1.650511	-0
2.663	1.235568	5.280828	0.485718	0.210556	0	0.039323	-95.664841	981.423828	97.968346	0.860876	0	-0.594902	-0	0.688771	-0	-0	1.605803	-0
2.664	1.315235	5.430135	0.526521	0.224764	0	0.03914	-99.174843	1005.322266	99.29611199999999	0.859642	0	-0.594653	-0	0.6613019999999999	-0	-0	1.563542	-0
2.665	1.309624	5.514789	0.553362	0.236865	0	0.041649	-102.848869	1029.122681	100.656441	0.85849	0	-0.594397	-0	0.633697	-0	-0	1.523719	-0
2.666	1.217652	5.53389	0.565511	0.24722	0	0.046767	-106.646034	1052.795288	102.045929	0.8574079999999999	0	-0.5941340000000001	-0	0.605995	-0	-0	1.486322	-0
2.667	1.041139	5.488139	0.562503	0.256038	0	0.05453	-110.524376	1076.310669	103.459991	0.856383	0	-0.593863	-0	0.578234	-0	-0	1.451329	-0
2.668	0.784783	5.379819	0.544162	0.263397	0	0.06508799999999999	-114.441551	1099.640503	104.892929	0.855401	0	-0.5935859999999999	-0	0.550445	-0	-0	1.418713	-0
2.669	0.45603	5.21274	0.51061	0.269236	0	0.078709	-118.35553	1122.757568	106.338127	0.854448	0	-0.5933040000000001	-0	0.522661	-0	-0	1.388436	-0
2.67	0.06482	4.992148	0.462282	0	0	0	-122.225151	1145.63623	107.788208	0.853509	0	-0.593018	0	0	0	-0	1.360455	-0
2.671	-0.376741	4.724611	0.399928	0	0	0	-126.010712	1168.252563	109.235214	0.852569	0	-0.59273	0	0	0	-0	1.334718	-0
2.672	-0.854814	4.417871	0.324603	0	0	0	-129.674438	1190.584229	110.670807	0.851615	0	-0.592441	0	0	0	-0	1.311165	-0
2.673	-1.354305	4.080672	0.237655	0	0	0	-133.180939	1212.611328	112.086525	0.850635	0	-0.592152	0	0	0	-0	1.289726	-0
2.674	-1.859396	3.722563	0.140708	0	0	0	-136.497559	1234.315796	113.473969	0.849614	0	-0.591866	0	0	0	-0	1.270324	-0
2.675	-2.354098	3.353672	0.035629	0	0	0	-139.594742	1255.681885	114.825035	0.848544	0	-0.591583	0	0	0	-0	1.25287	-0
2.676	-2.822796	2.984464	-0.075505	0	0	0	-142.44632	1276.696289	116.132149	0.847413	0	-0.591306	0	0	0	-0	1.237267	-0
2.677	-3.250777	2.625476	-0.190445	0	0	0	-145.02977	1297.347778	117.388443	0.8462150000000001	0	-0.591036	0	0	0	-0	1.223409	-0
2.678	-3.62471	2.287032	-0.306821	0	0	0	-147.326431	1317.627686	118.587967	0.844943	0	-0.5907750000000001	0	0	0	-0	1.211179	-0
2.679	-3.933071	1.978963	-0.422187	0	0	0	-149.321686	1337.529419	119.72583	0.843593	0	-0.590524	0	0	0	-0	1.200451	-0
2.68	-4.166483	1.710319	-0.534081	0	0	0	-151.005127	1357.048462	120.798355	0.842162	0	-0.590284	0	0	0	-0	1.191089	-0
2.681	-4.31798	1.489103	-0.640072	0	0	0	-152.370636	1376.182129	121.803162	0.840649	0	-0.590056	0	0	0	-0	1.182947	-0
2.682	-4.383175	1.322022	-0.737822	0	0	0	-153.416458	1394.92981	122.739265	0.8390570000000001	0	-0.589842	0	0	0	-0	1.175872	-0
2.683	-4.360338	1.214284	-0.82514	0	0	0	-154.145111	1413.291992	123.607094	0.837387	0	-0.589641	0	0	0	-0	1.1697	-0
2.684	-4.250381	1.169429	-0.900033	0	0	0	-154.563416	1431.27063	124.408501	0.835645	0	-0.589455	0	0	0	-0	1.16426	-0
2.685	-4.056766	1.189233	-0.960759	0	0	0	-154.68222	1448.868408	125.146729	0.8338370000000001	0	-0.589283	0	0	0	-0	1.159374	-0
2.686	-3.785335	1.273651	-1.005866	0	0	0	-154.51619	1466.088379	125.826324	0.83197	0	-0.589125	0	0	0	-0	1.154859	-0
2.687	-3.444082	1.420842	-1.034239	0	0	0	-154.083496	1482.934082	126.453079	0.830053	0	-0.588981	0	0	0	-0	1.150524	-0
2.688	-3.042866	1.627238	-1.045127	0	0	0	-153.405365	1499.408813	127.033844	0.828095	0	-0.588851	0	0	0	-0	1.146175	-0
2.689	-2.5931	1.88768	-1.038167	0	0	0	-152.505585	1515.515137	127.576416	0.826106	0	-0.588735	0	0	0	-0	1.141615	-0
2.69	-2.107395	2.195596	-1.013402	0	0	0	-151.409943	1531.255493	128.08934	0.824095	0	-0.58863	0	0	0	-0	1.136645	-0
2.691	-1.599204	2.543217	-0.971286	0	0	0	-150.145615	1546.630859	128.581696	0.822074	0	-0.5885359999999999	0	0	0	-0	1.131067	-0
2.692	-1.082444	2.921826	-0.912679	0	0	0	-148.740509	1561.641357	129.062943	0.820051	0	-0.588453	0	0	0	-0	1.12468	-0
2.693	-0.5711270000000001	3.322016	-0.838836	0	0	0	-147.222641	1576.285889	129.542648	0.818037	0	-0.588378	0	0	0	-0	1.117291	-0
2.694	-0.078988	3.733965	-0.751383	0	0	0	-145.6194	1590.562134	130.030319	0.81604	0	-0.588311	0	0	0	-0	1.108705	-0
2.695	0.380871	4.147699	-0.6522829999999999	0	0	0	-143.957031	1604.466797	130.535126	0.814069	0	-0.588251	0	0	0	-0	1.098737	-0
2.696	0.796327	4.55335	-0.543798	0	0	0	-142.259964	1617.994751	131.065811	0.812131	0	-0.5881960000000001	0	0	0	-0	1.087206	-0
2.697	1.156559	4.941402	-0.428436	0	0	0	-140.550385	1631.140625	131.630402	0.810232	0	-0.588145	0	0	0	-0	1.073941	-0
